# AST/ASF file generated using VICON BodyLanguage
# -----------------------------------------------
:version 1.10
:name VICON
:units
  mass 1.0
  length 0.45
  angle deg
:documentation
   .ast/.asf automatically generated from VICON data using
   VICON BodyBuilder and BodyLanguage model FoxedUp or BRILLIANT.MOD
:root
   order TX TY TZ RX RY RZ
   axis XYZ
   position 0 0 0  
   orientation 0 0 0 
:bonedata
  begin
     id 1 
     name lhipjoint
     direction 0.577973 -0.728611 0.367523 
     length 2.48544 
     axis 0 0 0  XYZ
  end
  begin
     id 2 
     name lfemur
     direction 0.34202 -0.939693 0  
     length 7.1921  
     axis 0 0 20  XYZ
    dof rx ry rz
    limits (-160.0 20.0)
           (-70.0 70.0)
           (-60.0 70.0)
  end
  begin
     id 3 
     name ltibia
     direction 0.34202 -0.939693 0   
     length 7.71059   
     axis 0 0 20   XYZ
    dof rx
    limits (-10.0 170.0)
  end
  begin
     id 4 
     name lfoot
     direction 0.089538 -0.246004 0.965124   
     length 2.19909   
     axis -90 7.62852e-016 20   XYZ
    dof rx rz
    limits (-45.0 90.0)
           (-70.0 20.0)
  end
  begin
     id 5 
     name ltoes
     direction 1.53544e-011 -4.21829e-011 1   
     length 1.10116   
     axis -90 7.62852e-016 20   XYZ
    dof rx
    limits (-90.0 20.0)
  end
  begin
     id 6 
     name rhipjoint
     direction -0.554414 -0.743062 0.374812   
     length 2.4371  
     axis 0 0 0  XYZ 
  end
  begin
     id 7 
     name rfemur
     direction -0.34202 -0.939693 0   
     length 7.47254   
     axis 0 0 -20   XYZ
    dof rx ry rz
    limits (-160.0 20.0)
           (-70.0 70.0)
           (-70.0 60.0)
  end
  begin
     id 8 
     name rtibia
     direction -0.34202 -0.939693 0   
     length 7.65855   
     axis 0 0 -20   XYZ
    dof rx
    limits (-10.0 170.0)
 end
 begin
     id 9 
     name rfoot
     direction -0.133779 -0.367555 0.92033   
     length 2.43006  
     axis -90 -7.62852e-016 -20   XYZ
    dof rx rz
    limits (-45.0 90.0)
           (-20.0 70.0)
  end
  begin
     id 10 
     name rtoes
     direction -1.53563e-011 -4.21889e-011 1   
     length 1.19625   
     axis -90 -7.62852e-016 -20   XYZ
    dof rx
    limits (-90.0 20.0)
  end
  begin
     id 11 
     name lowerback
     direction 0.0249066 0.998043 -0.0573585   
     length 2.08485   
     axis 0 0 0   XYZ
    dof rx ry rz
    limits (-20.0 45.0)
           (-30.0 30.0)
           (-30.0 30.0)
  end
  begin
     id 12 
     name upperback
     direction 0.0237884 0.999673 0.00943178   
     length 2.08515   
     axis 0 0 0   XYZ
    dof rx ry rz
    limits (-20.0 45.0)
           (-30.0 30.0)
           (-30.0 30.0)
  end
  begin
     id 13 
     name thorax
     direction 0.0106671 0.999301 0.0358174   
     length 2.09037   
     axis 0 0 0   XYZ
    dof rx ry rz
    limits (-20.0 45.0)
           (-30.0 30.0)
           (-30.0 30.0)
  end
  begin
     id 14 
     name lowerneck
     direction -0.0580016 0.987052 0.149546   
     length 1.84454   
     axis 0 0 0   XYZ
    dof rx ry rz
    limits (-20.0 45.0)
           (-30.0 30.0)
           (-30.0 30.0)
  end
  begin
     id 15 
     name upperneck
     direction 0.079456 0.981963 -0.171567   
     length 1.88141   
     axis 0 0 0   XYZ
    dof rx ry rz
    limits (-20.0 45.0)
           (-30.0 30.0)
           (-30.0 30.0)
  end
  begin
     id 16
     name head
     direction 0.0262167 0.9967 -0.0768276  
     length 1.89541  
     axis 0 0 0   XYZ
    dof rx ry rz
    limits (-20.0 45.0)
           (-30.0 30.0)
           (-30.0 30.0)
  end
  begin
     id 17 
     name lclavicle
     direction 0.946135 0.322134 -0.0325326  
     length 3.949  
     axis 0 0 0   XYZ
    dof ry rz
    limits (-20.0 10.0)
           (0.0 20.0)
  end
  begin
     id 18 
     name lhumerus
     direction 1 -4.48964e-011 1.94005e-028   
     length 5.10995   
     axis 180 -30 -90   XYZ
    dof rx ry rz
    limits (-60.0 90.0)
           (-90.0 90.0)
           (-90.0 90.0)
  end
  begin
     id 19
     name lradius
     direction 1 -4.48976e-011 2.87852e-027   
     length 3.21207   
     axis 180 -30 -90   XYZ
    dof rx
    limits (-10.0 170.0)
  end
  begin
     id 20
     name lwrist
     direction 1 -4.48963e-011 1.9975e-027   
     length 1.60604   
     axis 2.96054e-016 90 90   XYZ
    dof ry
    limits (-180.0 0.0)
 end
  begin
     id 21 
     name lhand
     direction 1 -4.48919e-011 4.00227e-027   
     length 0.63349   
     axis -2.5488e-015 90 90   XYZ
    dof rx rz
    limits (-90.0 90.0)
           (-45.0 45.0)
  end
  begin
     id 22 
     name lfingers
     direction 1 -4.49037e-011 7.9652e-027   
     length 0.510736   
     axis -5.0975e-015 90 90   XYZ
    dof rx
    limits (0.0 90.0)
  end
  begin
     id 23
     name lthumb
     direction 0.707107 -6.34922e-011 0.707107   
     length 0.733318   
     axis -90 45 -4.48553e-014   XYZ
    dof rx rz
    limits (-45.0 45.0)
           (-45.0 45.0)
  end
  begin
     id 24 
     name rclavicle
     direction -0.940085 0.328911 -0.0897654   
     length 3.93848  
     axis 0 0 0   XYZ 
    dof ry rz
    limits (-10.0 20.0)
           (-20.0 0.0)
  end
  begin
     id 25 
     name rhumerus
     direction -1 -4.48958e-011 3.02044e-027  
     length 5.25109   
     axis 180 30 90   XYZ
    dof rx ry rz
    limits (-90.0 60.0)
           (-90.0 90.0)
           (-90.0 90.0)
  end
  begin
     id 26 
     name rradius
     direction -1 -4.4897e-011 9.78352e-028   
     length 3.28364   
     axis 180 30 90   XYZ
    dof rx
    limits (-10.0 170.0)
  end
  begin
     id 27 
     name rwrist
     direction -1 -4.48943e-011 1.99918e-027   
     length 1.64182   
     axis 2.96054e-016 -90 -90   XYZ
    dof ry
    limits (-180.0 0.0)
  end
  begin
     id 28
     name rhand
     direction -1 -4.49024e-011 3.98478e-027   
     length 0.599745   
     axis -2.5488e-015 -90 -90   XYZ
    dof rx rz
    limits (-90.0 90.0)
           (-45.0 45.0)
  end
  begin
     id 29
     name rfingers
     direction -1 -4.48914e-011 8.00621e-027   
     length 0.48353   
     axis -5.0975e-015 -90 -90   XYZ
    dof rx
    limits (0.0 90.0)
  end
  begin
     id 30
     name rthumb
     direction -0.707107 -6.34992e-011 0.707107   
     length 0.694255   
     axis -90 -45 4.48553e-014   XYZ
    dof rx rz
    limits (-45.0 45.0)
           (-45.0 45.0)
  end
:hierarchy
  begin
    root lhipjoint rhipjoint lowerback
    lhipjoint lfemur
    lfemur ltibia
    ltibia lfoot
    lfoot ltoes
    rhipjoint rfemur
    rfemur rtibia
    rtibia rfoot
    rfoot rtoes
    lowerback upperback
    upperback thorax
    thorax lowerneck lclavicle rclavicle
    lowerneck upperneck
    upperneck head
    lclavicle lhumerus
    lhumerus lradius
    lradius lwrist
    lwrist lhand lthumb
    lhand lfingers
    rclavicle rhumerus
    rhumerus rradius
    rradius rwrist
    rwrist rhand rthumb
    rhand rfingers
  end

#!OML:ASF E:\CV Data\Top Level 1\Subject 1\Session 1\player.ASF
:FULLY-SPECIFIED
:DEGREES
322
root 9.96236 15.4316 -4.99206 -42.2034 -109.086 19.4568
lowerback 8.02493 -0.405436 3.95692
upperback -1.25993 -0.0711066 1.79745
thorax -5.83045 -0.148885 -0.336789
lowerneck -15.4968 14.5262 -5.18312
upperneck 31.9342 17.7721 14.2178
head 10.8852 9.09639 8.20922
rclavicle -5.26779e-015 2.0276e-014
rhumerus -2.24494 39.2796 -83.5818
rradius 111.977
rwrist 10.0799
rhand -50.3354 47.508
rfingers 7.12502
rthumb -22.911 18.8492
lclavicle -5.26779e-015 2.0276e-014
lhumerus 9.90223 -50.9768 82.6639
lradius 106.243
lwrist -1.21817
lhand -45.0265 6.68108
lfingers 7.12502
lthumb -17.8091 35.8856
rfemur -5.86672 9.24996 37.3505
rtibia 60.2273
rfoot -27.4848 -3.38892
rtoes 15.1587
lfemur -47.4159 25.3098 -1.99006
ltibia 113.031
lfoot -9.24536 -8.78418
ltoes -1.85341
323
root 9.90603 15.4152 -4.95669 -41.8565 -109.563 18.3458
lowerback 8.70385 -0.240642 4.26742
upperback -0.873358 0.201132 1.79909
thorax -5.79867 -0.0221588 -0.545136
lowerneck -15.4744 14.577 -5.22408
upperneck 31.8417 17.8691 14.1836
head 10.8338 9.13803 8.19486
rclavicle 7.55382e-015 -2.43511e-014
rhumerus -1.67251 38.6269 -83.7874
rradius 110.799
rwrist 9.1256
rhand -50.3417 47.1573
rfingers 7.12502
rthumb -22.917 18.4992
lclavicle 7.55382e-015 -2.43511e-014
lhumerus 11.469 -50.2158 81.4346
lradius 104.622
lwrist -0.387384
lhand -44.8312 6.64532
lfingers 7.12502
lthumb -17.6212 35.8668
rfemur -4.84168 9.38313 37.3209
rtibia 60.2562
rfoot -27.7367 -3.25192
rtoes 14.8676
lfemur -50.8346 25.52 -2.99145
ltibia 112.604
lfoot -9.40552 -8.73238
ltoes -2.72102
324
root 9.8489 15.4019 -4.92025 -41.4016 -110.011 17.1203
lowerback 9.37267 -0.0789911 4.56135
upperback -0.494225 0.466777 1.76575
thorax -5.76469 0.101493 -0.783143
lowerneck -15.4469 14.6341 -5.23315
upperneck 31.7659 17.9648 14.1486
head 10.7918 9.18121 8.17767
rclavicle -2.39536e-014 -1.73937e-014
rhumerus -1.15268 37.9261 -84.1166
rradius 109.502
rwrist 8.13928
rhand -50.3341 46.6898
rfingers 7.12502
rthumb -22.9098 18.0309
lclavicle -2.39536e-014 -1.73937e-014
lhumerus 12.9472 -49.4263 80.2498
lradius 102.878
lwrist 0.432256
lhand -44.5142 6.64117
lfingers 7.12502
lthumb -17.3161 35.8898
rfemur -3.80881 9.50742 37.2045
rtibia 60.2679
rfoot -27.9909 -3.08683
rtoes 14.5678
lfemur -54.1022 25.5826 -4.05077
ltibia 111.838
lfoot -9.46639 -8.59008
ltoes -3.60546
325
root 9.79138 15.3915 -4.8826 -40.8909 -110.435 15.8349
lowerback 10.0358 0.080446 4.8483
upperback -0.125729 0.728622 1.70604
thorax -5.734 0.22313 -1.04748
lowerneck -15.4079 14.6928 -5.19994
upperneck 31.7013 18.0518 14.1038
head 10.7592 9.2226 8.15171
rclavicle -1.19768e-014 -1.25234e-014
rhumerus -0.691505 37.162 -84.5562
rradius 108.089
rwrist 7.1133
rhand -50.3057 46.0709
rfingers 7.12502
rthumb -22.8825 17.4085
lclavicle -1.19768e-014 -1.25234e-014
lhumerus 14.3371 -48.6234 79.1049
lradius 101.024
lwrist 1.23898
lhand -44.0825 6.64021
lfingers 7.12502
lthumb -16.9006 35.9248
rfemur -2.76807 9.62239 37.0206
rtibia 60.2556
rfoot -28.2427 -2.89871
rtoes 14.2812
lfemur -57.1863 25.5171 -5.1102
ltibia 110.755
lfoot -9.45179 -8.33503
ltoes -4.51939
326
root 9.73395 15.3836 -4.84386 -40.3708 -110.831 14.5433
lowerback 10.695 0.226615 5.13254
upperback 0.23008 0.972861 1.62791
thorax -5.71027 0.335794 -1.33012
lowerneck -15.3685 14.7559 -5.12995
upperneck 31.6527 18.1377 14.0465
head 10.7388 9.26451 8.11909
rclavicle 6.31141e-015 1.88845e-015
rhumerus -0.281591 36.346 -85.1052
rradius 106.559
rwrist 6.02616
rhand -50.2464 45.2927
rfingers 7.12502
rthumb -22.8256 16.6233
lclavicle 6.31141e-015 1.88845e-015
lhumerus 15.6366 -47.7977 77.9929
lradius 99.0691
lwrist 2.04041
lhand -43.5414 6.58027
lfingers 7.12502
lthumb -16.3797 35.9086
rfemur -1.72765 9.72049 36.7823
rtibia 60.217
rfoot -28.4895 -2.69199
rtoes 14.0047
lfemur -60.0704 25.3305 -6.12722
ltibia 109.377
lfoot -9.39037 -7.94958
ltoes -5.47742
327
root 9.67662 15.3782 -4.80513 -39.8484 -111.177 13.2422
lowerback 11.3561 0.362768 5.38679
upperback 0.577075 1.20101 1.54116
thorax -5.69336 0.441061 -1.60557
lowerneck -15.332 14.8149 -5.04169
upperneck 31.6052 18.2196 13.9666
head 10.7251 9.30319 8.07732
rclavicle -1.83379e-014 4.47266e-015
rhumerus 0.0778996 35.453 -85.7308
rradius 104.924
rwrist 4.83537
rhand -50.085 44.3904
rfingers 7.12502
rthumb -22.6706 15.702
lclavicle -1.83379e-014 4.47266e-015
lhumerus 16.8655 -46.9569 76.9477
lradius 97.0141
lwrist 2.87124
lhand -42.8684 6.39619
lfingers 7.12502
lthumb -15.7316 35.7768
rfemur -0.676312 9.79614 36.4835
rtibia 60.1509
rfoot -28.734 -2.47871
rtoes 13.7366
lfemur -62.7231 25.0391 -7.08969
ltibia 107.724
lfoot -9.29421 -7.42743
ltoes -6.34934
328
root 9.6201 15.3746 -4.76587 -39.3507 -111.493 11.981
lowerback 11.9718 0.487063 5.57243
upperback 0.930749 1.40272 1.49525
thorax -5.64383 0.536115 -1.7973
lowerneck -15.3177 14.8734 -4.96296
upperneck 31.5812 18.3153 13.8518
head 10.7266 9.34109 8.0315
rclavicle 2.26118e-014 -2.94201e-014
rhumerus 0.440864 34.5414 -86.3564
rradius 103.189
rwrist 3.52284
rhand -49.8278 43.3169
rfingers 7.12502
rthumb -22.4238 14.5986
lclavicle 2.26118e-014 -2.94201e-014
lhumerus 18.0475 -46.0521 75.9807
lradius 94.8479
lwrist 3.68594
lhand -42.1664 6.04383
lfingers 7.12502
lthumb -15.0555 35.4764
rfemur 0.358604 9.86247 36.1548
rtibia 60.0597
rfoot -28.9672 -2.27628
rtoes 13.4259
lfemur -65.1666 24.6789 -7.96259
ltibia 105.823
lfoot -9.17627 -6.78061
ltoes -7.13072
329
root 9.56396 15.3725 -4.72659 -38.8917 -111.778 10.7743
lowerback 12.5365 0.594823 5.68098
upperback 1.29263 1.56935 1.501
thorax -5.5598 0.616754 -1.88653
lowerneck -15.3298 14.9358 -4.91172
upperneck 31.5862 18.4373 13.6998
head 10.7426 9.38149 7.98491
rclavicle 1.25483e-014 -3.8266e-015
rhumerus 0.803947 33.6359 -86.9797
rradius 101.362
rwrist 2.08924
rhand -49.4569 42.0778
rfingers 7.12502
rthumb -22.0677 13.317
lclavicle 1.25483e-014 -3.8266e-015
lhumerus 19.1832 -45.075 75.0816
lradius 92.5763
lwrist 4.48758
lhand -41.4642 5.53241
lfingers 7.12502
lthumb -14.3789 35.0144
rfemur 1.37996 9.91725 35.8055
rtibia 59.9451
rfoot -29.1922 -2.09704
rtoes 13.0469
lfemur -67.3913 24.27 -8.73611
ltibia 103.697
lfoot -9.0581 -5.99857
ltoes -7.8373
330
root 9.50851 15.3715 -4.68737 -38.474 -112.032 9.63215
lowerback 13.0354 0.694907 5.71057
upperback 1.66418 1.71028 1.55986
thorax -5.43269 0.68749 -1.87092
lowerneck -15.3613 14.9937 -4.89377
upperneck 31.6183 18.5728 13.5171
head 10.7714 9.41863 7.93858
rclavicle 9.30561e-015 4.07943e-014
rhumerus 1.1608 32.7128 -87.5992
rradius 99.4438
rwrist 0.578023
rhand -48.9617 40.7189
rfingers 7.12502
rthumb -21.5923 11.9027
lclavicle 9.30561e-015 4.07943e-014
lhumerus 20.2999 -44.0533 74.2476
lradius 90.1783
lwrist 5.21814
lhand -40.9264 4.85865
lfingers 7.12502
lthumb -13.8607 34.3768
rfemur 2.37601 9.96214 35.444
rtibia 59.8125
rfoot -29.4073 -1.9571
rtoes 12.5451
lfemur -69.4069 23.8279 -9.40791
ltibia 101.366
lfoot -8.94527 -5.09289
ltoes -8.49845
331
root 9.45372 15.3709 -4.64798 -38.1214 -112.267 8.58472
lowerback 13.4756 0.78644 5.70334
upperback 2.03651 1.83003 1.65796
thorax -5.27523 0.748707 -1.78909
lowerneck -15.3989 15.0473 -4.91198
upperneck 31.6786 18.7167 13.3207
head 10.8087 9.45189 7.89662
rclavicle -1.69464e-014 -2.47984e-014
rhumerus 1.49484 31.7621 -88.2287
rradius 97.4423
rwrist -0.965693
rhand -48.3667 39.2615
rfingers 7.12502
rthumb -21.0207 10.3807
lclavicle -1.69464e-014 -2.47984e-014
lhumerus 21.4114 -43.022 73.4192
lradius 87.6583
lwrist 5.83236
lhand -40.5591 4.09234
lfingers 7.12502
lthumb -13.5067 33.6343
rfemur 3.34049 10.0052 35.0916
rtibia 59.6663
rfoot -29.6135 -1.85348
rtoes 11.9402
lfemur -71.2273 23.3787 -9.96499
ltibia 98.8529
lfoot -8.83542 -4.09441
ltoes -9.08145
332
root 9.39969 15.3704 -4.60881 -37.8305 -112.48 7.6275
lowerback 13.8778 0.867453 5.69411
upperback 2.3989 1.932 1.76649
thorax -5.10851 0.800527 -1.69175
lowerneck -15.4456 15.0959 -4.93011
upperneck 31.762 18.8523 13.1283
head 10.8574 9.48026 7.85937
rclavicle -3.24516e-014 3.15074e-014
rhumerus 1.778 30.7619 -88.9161
rradius 95.3568
rwrist -2.48269
rhand -47.6878 37.7447
rfingers 7.12502
rthumb -20.3684 8.79286
lclavicle -3.24516e-014 3.15074e-014
lhumerus 22.5413 -42.0314 72.5339
lradius 85.0044
lwrist 6.27258
lhand -40.2811 3.27096
lfingers 7.12502
lthumb -13.2387 32.8306
rfemur 4.27172 10.0476 34.7489
rtibia 59.5127
rfoot -29.8133 -1.77584
rtoes 11.2662
lfemur -72.8574 22.9365 -10.4161
ltibia 96.175
lfoot -8.72224 -3.03649
ltoes -9.59261
333
root 9.34684 15.37 -4.57 -37.5917 -112.67 6.74421
lowerback 14.2698 0.941972 5.70083
upperback 2.73956 2.02671 1.86687
thorax -4.95825 0.847183 -1.61099
lowerneck -15.4824 15.1363 -4.93735
upperneck 31.8544 18.9664 12.9548
head 10.9091 9.5017 7.82579
rclavicle 2.49972e-014 -6.16232e-014
rhumerus 1.98394 29.6837 -89.6795
rradius 93.1907
rwrist -3.92283
rhand -46.9408 36.2026
rfingers 7.12502
rthumb -19.6503 7.17576
lclavicle 2.49972e-014 -6.16232e-014
lhumerus 23.7092 -41.1279 71.5543
lradius 82.2054
lwrist 6.47045
lhand -40.0311 2.46449
lfingers 7.12502
lthumb -12.9978 32.0396
rfemur 5.17402 10.0925 34.4139
rtibia 59.355
rfoot -30.0064 -1.71257
rtoes 10.5713
lfemur -74.2997 22.5174 -10.7696
ltibia 93.3488
lfoot -8.59314 -1.99408
ltoes -9.96183
